<svg width="54" height="40" viewBox="0 0 54 40" fill="none" xmlns="http://www.w3.org/2000/svg">
<rect opacity="0.01" width="54" height="40" fill="#FA3E3E"/>
<path fill-rule="evenodd" clip-rule="evenodd" d="M43 9H9C6.23858 9 4 11.2386 4 14V27C4 29.7614 6.23858 32 9 32H43C45.7614 32 48 29.7614 48 27V14C48 11.2386 45.7614 9 43 9ZM6 14C6 12.3431 7.34315 11 9 11H43C44.6569 11 46 12.3431 46 14V27C46 28.6569 44.6569 30 43 30H9C7.34315 30 6 28.6569 6 27V14ZM52.5 20C52.5 18.1493 51.4945 16.5334 50 15.6689V24.3311C51.4945 23.4666 52.5 21.8507 52.5 20Z" fill="black"/>
<path fill-rule="evenodd" clip-rule="evenodd" d="M10 13H42C43.1046 13 44 13.8954 44 15V26C44 27.1046 43.1046 28 42 28H10C8.89543 28 8 27.1046 8 26V15C8 13.8954 8.89543 13 10 13Z" fill="black"/>
</svg>
