<svg width="24" height="24" viewBox="0 0 24 24" fill="none" xmlns="http://www.w3.org/2000/svg">
<path fill-rule="evenodd" clip-rule="evenodd" d="M20.7701 9.82523H3.22949C2.71152 9.82523 2.29199 9.4057 2.29199 8.88773C2.29199 8.36976 2.71152 7.95023 3.22949 7.95023H18.8342L16.5771 5.19398C16.249 4.7932 16.3076 4.20257 16.7084 3.87445C17.1092 3.54632 17.6998 3.60492 18.0279 4.0057L21.4076 8.13539C21.4639 8.2057 21.5107 8.2807 21.5436 8.35804C21.6467 8.50804 21.7076 8.69085 21.7076 8.88773C21.7076 9.4057 21.2881 9.82523 20.7701 9.82523ZM3.22949 14.1752H20.7701C21.2881 14.1752 21.7053 14.5948 21.7053 15.1127C21.7053 15.6307 21.2857 16.0502 20.7678 16.0502H5.4209L8.11152 18.7362C8.47715 19.1041 8.47715 19.6971 8.11152 20.0627C7.92871 20.2455 7.68965 20.3369 7.44824 20.3369C7.20684 20.3369 6.96777 20.2455 6.78496 20.0627L2.65293 15.933C2.56855 15.8463 2.50059 15.7479 2.45605 15.6424C2.35293 15.4924 2.29199 15.3096 2.29199 15.1127C2.29199 14.5948 2.71152 14.1752 3.22949 14.1752Z" fill="#666666"/>
</svg>
