<svg width="28" height="28" viewBox="0 0 28 28" fill="none" xmlns="http://www.w3.org/2000/svg">
<path fill-rule="evenodd" clip-rule="evenodd" d="M14 1.75C7.23451 1.75 1.75 7.23451 1.75 14C1.75 20.7655 7.23451 26.25 14 26.25C20.7655 26.25 26.25 20.7655 26.25 14C26.2423 7.23771 20.7623 1.75772 14 1.75ZM15.2475 20.4962C14.9668 20.778 14.5853 20.9363 14.1875 20.9363C13.7897 20.9363 13.4082 20.778 13.1275 20.4962C12.9918 20.3577 12.8832 20.195 12.8075 20.0165C12.7276 19.8337 12.6867 19.6363 12.6875 19.4368C12.6887 19.2376 12.7295 19.0405 12.8075 18.8572C12.9991 18.3959 13.4087 18.0608 13.899 17.9644C14.3893 17.868 14.8954 18.023 15.2475 18.3774C15.5258 18.6604 15.6835 19.0401 15.6875 19.4368C15.6874 19.8343 15.5291 20.2155 15.2475 20.4962ZM14.1875 16C15.0159 16 15.6875 15.3284 15.6875 14.5V7.5C15.6875 6.67157 15.0159 6 14.1875 6C13.3591 6 12.6875 6.67157 12.6875 7.5V14.5C12.6875 15.3284 13.3591 16 14.1875 16Z" fill="#FF3024"/>
</svg>
