<svg width="82" height="40" viewBox="0 0 82 40" fill="none" xmlns="http://www.w3.org/2000/svg">
<rect opacity="0.01" width="40" height="40" fill="#FA3E3E"/>
<rect opacity="0.01" x="42" width="40" height="40" fill="#FA3E3E"/>
<path fill-rule="evenodd" clip-rule="evenodd" d="M77.7446 15.3977L77.7314 14.928C73.6123 11.2424 68.3215 9.20996 62.7613 9.20996C57.1855 9.20996 51.8807 11.2539 47.7574 14.9584L47.7446 15.4276L50.1831 17.8703L50.6243 17.8845C53.9797 14.9305 58.2634 13.3049 62.7613 13.3049C67.2441 13.3049 71.5143 14.9195 74.8652 17.8554L75.3058 17.8407L77.7446 15.3977ZM72.3867 20.2687L72.407 20.7445L69.961 23.1947L69.5315 23.2188C67.61 21.683 65.2394 20.8481 62.7613 20.8481C60.2683 20.8481 57.8841 21.6932 55.957 23.2462L55.5265 23.2229L53.0814 20.7736L53.1009 20.2984C55.7991 18.0078 59.1982 16.7532 62.7613 16.7532C66.3086 16.7532 69.6936 17.9966 72.3867 20.2687ZM62.9579 30.21H62.5015L58.4441 26.1455C58.3025 26.0038 58.3226 25.7685 58.4861 25.6528C59.7344 24.7699 61.2183 24.2965 62.7613 24.2965C64.2881 24.2965 65.7571 24.76 66.9976 25.6255C67.1626 25.7406 67.1835 25.977 67.0414 26.1194L62.9579 30.21Z" fill="black"/>
</svg>
