<svg width="750" height="400" viewBox="0 0 750 400" fill="none" xmlns="http://www.w3.org/2000/svg">
<path fill-rule="evenodd" clip-rule="evenodd" d="M3.99998 0C1.79084 0 0 1.79086 0 4V395C0 397.209 1.79086 399 4 399H748C749.105 399 750 398.105 750 397V4.00001C750 1.79087 748.209 0 746 0H3.99998Z" fill="url(#paint0_linear_0_5603)"/>
<path fill-rule="evenodd" clip-rule="evenodd" d="M0 0H750V400H0L0 0Z" fill="url(#paint1_linear_0_5603)"/>
<mask id="mask0_0_5603" style="mask-type:luminance" maskUnits="userSpaceOnUse" x="0" y="0" width="750" height="400">
<path fill-rule="evenodd" clip-rule="evenodd" d="M0 0H750V400H0L0 0Z" fill="white"/>
</mask>
<g mask="url(#mask0_0_5603)">
<rect y="348" width="750" height="52" fill="url(#paint2_linear_0_5603)"/>
<rect x="623" y="348" width="127" height="52" fill="url(#paint3_linear_0_5603)"/>
<g opacity="0.8">
<circle cx="55.2036" cy="-30.6475" r="283" fill="url(#paint4_linear_0_5603)"/>
<circle cx="55.2036" cy="-30.6475" r="284" stroke="white" stroke-opacity="0.971198" stroke-width="2"/>
</g>
</g>
<circle opacity="0.6" cx="583.704" cy="187.853" r="100" fill="url(#paint5_linear_0_5603)" stroke="url(#paint6_linear_0_5603)" stroke-width="2"/>
<defs>
<linearGradient id="paint0_linear_0_5603" x1="455.943" y1="307.653" x2="500.071" y2="59.7086" gradientUnits="userSpaceOnUse">
<stop stop-color="#FD5F05"/>
<stop offset="1" stop-color="#FF8610"/>
</linearGradient>
<linearGradient id="paint1_linear_0_5603" x1="936.296" y1="149.394" x2="721.005" y2="-277.92" gradientUnits="userSpaceOnUse">
<stop stop-color="#FFE7D2"/>
<stop offset="1" stop-color="#FFF8ED"/>
</linearGradient>
<linearGradient id="paint2_linear_0_5603" x1="0" y1="348" x2="0" y2="400" gradientUnits="userSpaceOnUse">
<stop stop-color="#FFF7EB"/>
<stop offset="1" stop-color="#F7F7F7"/>
</linearGradient>
<linearGradient id="paint3_linear_0_5603" x1="623" y1="348" x2="623" y2="400" gradientUnits="userSpaceOnUse">
<stop stop-color="#FFE7D2"/>
<stop offset="1" stop-color="#F7F7F7"/>
</linearGradient>
<linearGradient id="paint4_linear_0_5603" x1="-69.4077" y1="100.177" x2="162.261" y2="284.571" gradientUnits="userSpaceOnUse">
<stop stop-color="#FFFAF4"/>
<stop offset="1" stop-color="#FFFAF3"/>
</linearGradient>
<linearGradient id="paint5_linear_0_5603" x1="540.112" y1="233.618" x2="621.155" y2="298.123" gradientUnits="userSpaceOnUse">
<stop stop-color="#FEF3E7"/>
<stop offset="1" stop-color="#FFF2E8"/>
</linearGradient>
<linearGradient id="paint6_linear_0_5603" x1="548.74" y1="71.4814" x2="583.551" y2="122.666" gradientUnits="userSpaceOnUse">
<stop stop-color="white" stop-opacity="0.971198"/>
<stop offset="1" stop-color="white" stop-opacity="0.0990436"/>
</linearGradient>
</defs>
</svg>
